<svg xmlns="http://www.w3.org/2000/svg" xmlns:xlink="http://www.w3.org/1999/xlink" viewBox="0 0 91.1 91.1"><defs><style>.cls-1,.cls-4{fill:none;}.cls-2{fill-opacity:0;stroke-width:10px;}.cls-2,.cls-4{stroke:#014782;stroke-miterlimit:10;}.cls-3{clip-path:url(#clip-path);}.cls-4{stroke-width:8px;}</style><clipPath id="clip-path"><path class="cls-1" d="M20.11,17q25.44,0,50.89,0v57H20.1c-.47-.35,0-4.76,0-5.48v-19C20.1,38.88,20.1,27.87,20.11,17Z"/></clipPath></defs><g id="Слой_2" data-name="Слой 2"><g id="Слой_1-2" data-name="Слой 1"><path class="cls-2" d="M15.2,5H75.9A10.24,10.24,0,0,1,86.1,15.2V75.9A10.24,10.24,0,0,1,75.9,86.1H15.2A10.24,10.24,0,0,1,5,75.9V15.2A10.18,10.18,0,0,1,15.2,5Z"/><g class="cls-3"><polyline class="cls-4" points="24.01 37.63 24.01 24.83 36.71 24.83 24.01 24.83 67.31 68.13 54.61 68.13 67.31 68.13 67.31 55.43"/></g></g></g></svg>